Coordinates
version=1
nRows=5
nColumns=40
inDegrees=yes

Units are S.I. units (second, meters, Newtons, ...)
Angles are in degrees.

endheader
time	pelvis_tilt	pelvis_list	pelvis_rotation	pelvis_tx	pelvis_ty	pelvis_tz	hip_flexion_r	hip_adduction_r	hip_rotation_r	knee_angle_r	knee_angle_r_beta	ankle_angle_r	subtalar_angle_r	mtp_angle_r	hip_flexion_l	hip_adduction_l	hip_rotation_l	knee_angle_l	knee_angle_l_beta	ankle_angle_l	subtalar_angle_l	mtp_angle_l	lumbar_extension	lumbar_bending	lumbar_rotation	arm_flex_r	arm_add_r	arm_rot_r	elbow_flex_r	pro_sup_r	wrist_flex_r	wrist_dev_r	arm_flex_l	arm_add_l	arm_rot_l	elbow_flex_l	pro_sup_l	wrist_flex_l	wrist_dev_l
     47.57000000	     -5.38302745	     -5.83648807	      7.90059647	      0.91829438	      0.91789219	      0.49467790	     -0.20507936	      2.84085810	    -17.89616708	     18.50212433	     18.50212433	     18.31193146	     -2.36043299	     -1.48426620	     28.91807433	     -5.96372717	      3.88437375	     28.41555360	     28.41555360	      8.38118956	    -13.60755649	      5.24335954	     -8.56469888	      3.62172062	      3.71974304	     54.38297881	    -20.27365132	     -8.08069630	     63.08575079	     44.71890441	      0.00000000	      0.00000000	    -13.82429612	    -10.72728234	     12.42320691	     34.31769798	     43.75852788	      0.00000000	      0.00000000
     47.58971429	     -5.46427044	     -5.62328588	      7.47019147	      0.91909374	      0.91931755	      0.48985786	     -0.48716597	      2.08082391	    -18.11698434	     18.70828044	     18.70828044	     17.29081326	     -1.53038893	     -3.74567791	     28.13357807	     -5.68901685	      3.18861114	     28.05762907	     28.05762907	      9.10276074	    -13.25402242	      5.97196689	     -8.38134301	      3.47261120	      3.23685576	     54.70566985	    -19.05211046	     -9.20935347	     58.76281593	     44.97194620	      0.00000000	      0.00000000	    -14.26598392	    -11.46056862	     11.77427215	     37.34720964	     44.01259865	      0.00000000	      0.00000000
     47.60942857	     -5.59704950	     -5.73501063	      7.07494545	      0.91963737	      0.92060467	      0.48519607	     -0.58528012	      1.76367981	    -17.96504365	     18.99628803	     18.99628803	     16.69550166	     -1.38303400	     -3.67814191	     27.57343981	     -5.65763760	      2.87983264	     27.83252584	     27.83252584	      9.54241091	    -13.33721431	      5.88011553	     -8.26392166	      3.74063760	      3.10860171	     53.87301344	    -18.72418551	     -9.12029732	     58.35516559	     44.97964457	      0.00000000	      0.00000000	    -13.40063437	    -11.72538568	     11.65268279	     37.67661289	     44.04293430	      0.00000000	      0.00000000
     47.62914286	     -5.69261413	     -5.38886904	      6.59276023	      0.92030613	      0.92230680	      0.48041719	     -0.62363269	      0.86527795	    -17.74396068	     19.60767277	     19.60767277	     16.15362627	     -1.16989775	     -4.09070102	     26.50146436	     -5.26214349	      1.99110474	     26.91385322	     26.91385322	      9.83123217	    -12.87679518	      5.88275070	     -8.13330576	      3.47545739	      3.46241175	     52.55292228	    -18.98938918	     -9.37824998	     56.83391595	     45.04358022	      0.00000000	      0.00000000	    -12.49816170	    -12.20775407	     11.33451385	     38.42785816	     44.11246750	      0.00000000	      0.00000000
     47.64885714	     -5.77482857	     -5.34221222	      6.14934382	      0.92071947	      0.92364658	      0.47573423	     -0.61653989	      0.25713467	    -17.74996552	     20.17160338	     20.17160338	     15.10425853	     -0.83478563	     -5.90232063	     25.73431059	     -5.11073101	      1.41150846	     26.43578435	     26.43578435	     10.10387172	    -12.74702604	      5.58292933	     -7.99780832	      3.57889691	      3.60501251	     51.93737824	    -18.76547344	    -10.43492295	     53.81003842	     45.21132522	      0.00000000	      0.00000000	    -11.82353106	    -12.70387394	     10.91389622	     40.01482176	     44.25011710	      0.00000000	      0.00000000
